<svg id="Layer_1" data-name="Layer 1" xmlns="http://www.w3.org/2000/svg" width="666.895" height="763.1005" viewBox="0 0 666.895 763.1005"><defs><style>.cls-1{fill:#0aa5ff;}</style></defs><path class="cls-1" d="M0,480.0721a136.1654,136.1654,0,0,0,44.3221,89.8968,40.8229,40.8229,0,0,0,4.8831,3.8083l110.0853,73.1353a40.6306,40.6306,0,0,0,44.9809-.009L463.8127,474.3261a40.6309,40.6309,0,0,0,18.1336-33.834v0c0-32.4022-36.0693-51.7683-63.0778-33.8673L205.3357,548.1519a40.6306,40.6306,0,0,1-45.1143-.1472l-46.0248-30.9388a40.9192,40.9192,0,0,1-3.8841-2.9626,97.6022,97.6022,0,0,1-33.0974-60.8692,40.7571,40.7571,0,0,1-.3752-5.583q.2823-203.4.5646-406.7995A40.6308,40.6308,0,0,0,36.61.1647L0,.3123Z"/><path class="cls-1" d="M324.4173,342.6237,527.49,202.2122c25.4107-17.57,60.086.7038,59.9572,31.5969l-1.09,261.3674a36.8488,36.8488,0,0,1-.5357,6.23,53.5458,53.5458,0,0,1-2.716,9.8393,56.63,56.63,0,0,1-7.0658,12.867,58.2573,58.2573,0,0,1-6.2667,7.2693,37.6629,37.6629,0,0,1-5.7572,4.6261q-55.7493,36.5877-112.384,73.1784-64.6477,41.7639-128.83,82.4784A38.2128,38.2128,0,0,0,321.8,755.53l1.4048.9552a38.2205,38.2205,0,0,0,41.8547.7389q122.314-77.0049,244.6284-154.01a38.0136,38.0136,0,0,0,6.887-5.5413c16.3348-16.6427,40.2618-46.7093,47.78-89.2562a154.1821,154.1821,0,0,0,2.3425-26.94q.0988-199.1919.1976-398.3837c.0154-31.0577-35.0548-49.1654-60.3672-31.1692L317.5288,257.3924c-25.2649,17.9625-60.2791-.0424-60.367-31.0418l-.3078-108.51a38.22,38.22,0,0,1,37.7707-38.3263l109.0909-1.2834a38.2205,38.2205,0,0,0,22.2449-7.4645l1.0369-.7653C456.6005,48.1555,441.2705,1.1981,404.48,1.0276L182.721,0l-.38,268.0007C182.2379,341.0923,264.2973,384.1926,324.4173,342.6237Z"/></svg>