<svg id="Layer_1" data-name="Layer 1" xmlns="http://www.w3.org/2000/svg" width="270.0742" height="242.1732" viewBox="0 0 270.0742 242.1732"><defs><style>.cls-1{fill:#0aa5ff;}</style></defs><path class="cls-1" d="M64.008,101.018a28.6518,28.6518,0,0,0,9.3263,18.9163,8.59,8.59,0,0,0,1.0275.8014L97.5263,136.125a8.55,8.55,0,0,0,9.465-.0019l54.6133-36.3142A8.55,8.55,0,0,0,165.42,92.69h0a8.55,8.55,0,0,0-13.2729-7.1265l-44.9322,29.7806a8.55,8.55,0,0,1-9.493-.031l-9.6847-6.51a8.6062,8.6062,0,0,1-.8173-.6234,20.5375,20.5375,0,0,1-6.9644-12.8082,8.5808,8.5808,0,0,1-.079-1.1748l.1188-85.6A8.55,8.55,0,0,0,71.7115.0347L64.008.0657Z"/><path class="cls-1" d="M132.2727,72.0958,175.0038,42.55A8.0424,8.0424,0,0,1,187.62,49.1987q-.1146,27.4989-.2293,54.9976a7.75,7.75,0,0,1-.1127,1.3109,11.2739,11.2739,0,0,1-.5715,2.07,11.917,11.917,0,0,1-1.4869,2.7075,12.2493,12.2493,0,0,1-1.3186,1.53,7.93,7.93,0,0,1-1.2114.9735q-11.731,7.6989-23.6482,15.3984-13.6034,8.788-27.1088,17.3553a8.0407,8.0407,0,0,0-.2107,13.4387l.2955.201a8.0423,8.0423,0,0,0,8.8072.1555L192.3,126.93a7.999,7.999,0,0,0,1.4492-1.166,36.08,36.08,0,0,0,10.0539-18.7815,32.4445,32.4445,0,0,0,.493-5.6687q.0207-41.9145.0415-83.8289a8.0424,8.0424,0,0,0-12.7026-6.5587l-60.8119,43.235a8.0425,8.0425,0,0,1-12.7026-6.5319l-.0648-22.833a8.0425,8.0425,0,0,1,7.9479-8.0647l22.9551-.27a8.0423,8.0423,0,0,0,4.6809-1.5707l.2182-.161A8.0425,8.0425,0,0,0,149.12.2162L102.4566,0l-.08,56.3934A19.0576,19.0576,0,0,0,132.2727,72.0958Z"/><path class="cls-1" d="M29.5684,182.806v.6377H26.4937V202.473h1.0439c3.5972,0,5.1924-2.6113,6.9038-6.15h.6094L34.5,203.1107H19.126v-.6377h1.7109V183.4437H19.126v-.6377Z"/><path class="cls-1" d="M42.1226,189.3031h8.4121v.5224H48.9683l3.1616,9.63,3.3647-9.63H53.5513v-.5224h4.09v.5224h-1.45L50.7666,205.46c-1.3052,3.7422-2.8135,4.9024-5.105,4.9024-2.1758,0-3.626-1.1026-3.626-2.93a2.1855,2.1855,0,0,1,2.32-2.35c1.4794,0,2.4077.6377,2.4077,2.0009a3.9144,3.9144,0,0,1-.1739,1.045H45.5742c-.29.87-.1157,1.5371.7256,1.5371,1.624,0,2.7847-1.6241,3.8867-4.7569l.6382-1.7988H48.272l-4.96-13.2852H42.1226Z"/><path class="cls-1" d="M70.3408,195.5394v1.5088c0,3.7129.6675,5.3662,2.93,5.3662,2.6392,0,3.77-2.2334,4.09-3.8l.522.0576c-.3769,1.7989-1.3345,4.7285-6.1782,4.7285-4.4673,0-6.9619-2.4941-6.9619-7.0195,0-4.873,2.959-7.3682,7.7451-7.3682,3.5386,0,5.3081,1.5088,5.3081,3.6846,0,1.7979-.957,2.7266-2.4077,2.7266a2.29,2.29,0,0,1-2.5816-2.4082,3.8593,3.8593,0,0,1,.1451-1.044h.957a3.13,3.13,0,0,0,.2031-1.0439,1.2534,1.2534,0,0,0-1.3921-1.3926C71.0371,189.5355,70.3408,191.2181,70.3408,195.5394Z"/><path class="cls-1" d="M86.3765,196.2357c0-5.0176,3.4228-7.2227,7.4546-7.2227,4.5542,0,6.498,2.292,6.3237,6.6143h-8.18v1.1309c0,3.4228.6094,5.7431,3.4229,5.7431,2.1464,0,3.5971-1.3633,4.2353-3.5967l.522.087c-.667,2.4951-2.1753,4.4091-6.2944,4.4091C88.6973,203.4007,86.3765,200.4418,86.3765,196.2357Zm5.3081-8.9922.3193.2031,3.8867-3.22a2.03,2.03,0,0,0,.8413-1.5371c0-.7539-.5512-1.5664-1.8564-1.2764l-1.3633.29Zm3.3071,7.8037v-1.4219c0-3.0459-.2319-4.0605-1.4214-4.0605-1.0151,0-1.5664.9863-1.5664,4.0605v1.4219Z"/><path class="cls-1" d="M116.4229,189.013c4.5537,0,6.497,2.292,6.3232,6.6143h-8.18v1.1309c0,3.4228.6089,5.7431,3.4224,5.7431,2.1469,0,3.5971-1.3633,4.2353-3.5967l.522.087c-.667,2.4951-2.1753,4.4091-6.2944,4.4091-5.1631,0-7.4839-2.9589-7.4839-7.165C108.9678,191.2181,112.3906,189.013,116.4229,189.013Zm1.16,6.0342v-1.4219c0-3.0459-.2324-4.0605-1.4214-4.0605-1.0151,0-1.5664.9863-1.5664,4.0605v1.4219Z"/><path class="cls-1" d="M157.082,199.7455c0-2.4073-1.7988-3.19-5.3672-4.2061-3.51-.9853-6.1777-2.3779-6.1777-6.7578,0-3.249,2.4072-6.2949,6.874-6.2949,2.669,0,4.1778.8994,5.1641.8994.4922,0,.6377-.2031.8408-.58h.3194l.2031,5.8594h-.4649c-1.48-2.669-3.4511-5.5693-6.4394-5.5693-2.0879,0-3.5391,1.2177-3.5391,2.93,0,2.1465,1.9727,2.8711,4.9024,3.6543,3.22.8711,6.788,1.9727,6.788,6.7881,0,4.1768-2.8427,6.9326-7.1064,6.9326-2.8145,0-5.251-.87-6.0625-.87-.4648,0-.6387.3194-.8711.87H145.74l-.29-6.9033h.4932c1.45,2.9,4.2636,6.294,7.4541,6.294C155.1377,202.7914,157.082,201.8636,157.082,199.7455Z"/><path class="cls-1" d="M176.2207,191.5951a3.9721,3.9721,0,0,1,4.0029-2.5821c3.2491,0,5.25,2.292,5.25,7.2227,0,4.9609-2.03,7.165-5.9756,7.165-1.9726,0-2.6972-.5224-3.22-1.4209v7.5127h3.7422v.5215H169.2881v-.5215h1.5947v-19.667h-1.5371v-.5224h6.875Zm.0576,2.6689v5.3076c0,1.5664.6094,2.9883,1.8858,2.9883,1.4209,0,1.7109-1.7119,1.7109-5.7441V195.308c0-4.09-.3477-5.0469-1.334-5.0469C177.3516,190.2611,176.2783,191.74,176.2783,194.264Z"/><path class="cls-1" d="M201.7119,189.013c4.8731,0,7.1934,2.292,7.1934,6.9913,0,4.7568-2.2051,7.3964-7.3682,7.3964-4.873,0-7.3389-2.61-7.3389-7.1357C194.1982,191.5082,197.041,189.013,201.7119,189.013Zm1.624,5.918c0-3.1328-.0869-5.3955-1.7119-5.3955-1.7685,0-1.8564,2.2627-1.8564,5.54v2.2627c0,3.3653.0586,5.54,1.8281,5.54,1.6533,0,1.74-1.711,1.74-5.4824Z"/><path class="cls-1" d="M224.3311,194.8148v7.7734h2.06v.5225h-9.05v-.5225h1.5947V189.8255h-1.5947v-.5224h6.99v2.7851a3.8918,3.8918,0,0,1,3.8867-3.0752,2.8129,2.8129,0,0,1,3.0752,3.1045c0,1.6534-.87,2.7549-2.4366,2.7549-1.9433,0-2.872-1.2178-2.2626-3.2773h1.0439c.58-1.19,0-1.48-.6084-1.48C225.6367,190.1156,224.3311,192.2044,224.3311,194.8148Z"/><path class="cls-1" d="M240.7725,189.8255h-1.5948v-.5224h1.5948v-3.7412l5.3955-1.335v5.0762H249.94v.5224H246.168v9.7754c0,1.711.2617,2.64,1.2763,2.64,1.3926,0,2.2627-1.2764,2.5235-3.249l.4931.0586c-.2607,2.2617-1.2177,4.3505-4.7568,4.3505-2.8721,0-4.9316-.8408-4.9316-4.4384Z"/><path class="cls-1" d="M.936,236.973v-9.49H2.665l1.209,4.1084,1.2608-4.1084h1.729v9.49H5.7329v-4.4853c0-.4239.0064-.9122.0195-1.462s.0328-1.1074.0586-1.6709.0562-1.07.0909-1.52l-1.5337,4.9H3.354l-1.4692-4.7842q.1039.9624.143,2.1065t.0391,2.4307v4.4853Z"/><path class="cls-1" d="M14.0791,237.1029a2.4446,2.4446,0,0,1-1.7549-.6172,2.13,2.13,0,0,1-.65-1.6191,2.19,2.19,0,0,1,.2988-1.1563,2.08,2.08,0,0,1,.8321-.7734,2.59,2.59,0,0,1,1.2221-.28h2.21v-.5586q0-1.3916-1.521-1.3906a2.12,2.12,0,0,0-1.0923.247.8251.8251,0,0,0-.4419.6885h-1.17a1.8857,1.8857,0,0,1,.7866-1.3974,3.0735,3.0735,0,0,1,1.9175-.5528,2.8918,2.8918,0,0,1,1.9956.6241,2.2212,2.2212,0,0,1,.6953,1.7421v4.9141H16.25v-1.3h-.0259a1.5026,1.5026,0,0,1-.6631,1.0459A2.5723,2.5723,0,0,1,14.0791,237.1029Zm.2861-.9883a2.0812,2.0812,0,0,0,1.3648-.416,1.3831,1.3831,0,0,0,.5073-1.1309v-1.0009h-2.08a1.2849,1.2849,0,0,0-.93.3447,1.2145,1.2145,0,0,0-.3574.917,1.184,1.184,0,0,0,.3965.9424A1.6217,1.6217,0,0,0,14.3652,236.1146Z"/><path class="cls-1" d="M22.8018,236.973v-7.15h1.17v1.3652h.0127a1.5978,1.5978,0,0,1,.5849-1.1044,2.0555,2.0555,0,0,1,1.313-.3907,2.2717,2.2717,0,0,1,1.7163.6631,2.5027,2.5027,0,0,1,.6367,1.8076v4.81h-1.17v-4.6016a1.76,1.76,0,0,0-.41-1.2548,1.4522,1.4522,0,0,0-1.1113-.4356,1.4914,1.4914,0,0,0-1.15.4551,1.8217,1.8217,0,0,0-.4223,1.2871v4.55Z"/><path class="cls-1" d="M35.6851,237.1029a2.4445,2.4445,0,0,1-1.7549-.6172,2.13,2.13,0,0,1-.65-1.6191,2.19,2.19,0,0,1,.2988-1.1563,2.08,2.08,0,0,1,.832-.7734,2.59,2.59,0,0,1,1.2222-.28h2.21v-.5586q0-1.3916-1.521-1.3906a2.12,2.12,0,0,0-1.0923.247.8249.8249,0,0,0-.4419.6885h-1.17a1.885,1.885,0,0,1,.7866-1.3974,3.0733,3.0733,0,0,1,1.9175-.5528,2.8918,2.8918,0,0,1,1.9956.6241,2.2215,2.2215,0,0,1,.6953,1.7421v4.9141H37.856v-1.3H37.83a1.503,1.503,0,0,1-.6631,1.0459A2.5725,2.5725,0,0,1,35.6851,237.1029Zm.2861-.9883a2.0809,2.0809,0,0,0,1.3647-.416,1.3832,1.3832,0,0,0,.5074-1.1309v-1.0009h-2.08a1.2847,1.2847,0,0,0-.93.3447,1.2141,1.2141,0,0,0-.3574.917,1.184,1.184,0,0,0,.3965.9424A1.6213,1.6213,0,0,0,35.9712,236.1146Z"/><path class="cls-1" d="M45.3047,239.3128v-1.0654H47.32a1.3143,1.3143,0,0,0,.9619-.3447,1.2422,1.2422,0,0,0,.3511-.93v-.65l.0259-1.17H48.62a1.4087,1.4087,0,0,1-.6113.9814,2.5177,2.5177,0,0,1-3.0161-.3574,2.7578,2.7578,0,0,1-.6367-1.9238v-1.5078a2.8108,2.8108,0,0,1,.6367-1.9375,2.2145,2.2145,0,0,1,1.7422-.7149,2.1323,2.1323,0,0,1,1.2739.3643,1.4782,1.4782,0,0,1,.6113,1.001h.0259v-1.2354h1.1567v7.15a2.2371,2.2371,0,0,1-.6694,1.71,2.5581,2.5581,0,0,1-1.8262.63Zm1.7812-3.8085a1.4716,1.4716,0,0,0,1.1441-.4551,1.8,1.8,0,0,0,.416-1.2608v-1.3652a1.798,1.798,0,0,0-.416-1.2607,1.4713,1.4713,0,0,0-1.1441-.4551,1.514,1.514,0,0,0-1.15.4287,1.6073,1.6073,0,0,0-.41,1.1572v1.625a1.6034,1.6034,0,0,0,.41,1.1563A1.5145,1.5145,0,0,0,47.0859,235.5043Z"/><path class="cls-1" d="M57.915,237.1029a2.7713,2.7713,0,0,1-2.0341-.7608,2.8067,2.8067,0,0,1-.774-2.1v-1.6894a2.8083,2.8083,0,0,1,.774-2.1,2.7754,2.7754,0,0,1,2.0341-.7608,3.086,3.086,0,0,1,1.4756.3379,2.4371,2.4371,0,0,1,.9815.9492,2.85,2.85,0,0,1,.351,1.4434v1.2734H56.251v.6768a1.7081,1.7081,0,0,0,.4551,1.2539,1.6219,1.6219,0,0,0,1.2089.4619,2.0579,2.0579,0,0,0,1.0728-.2539,1.03,1.03,0,0,0,.5132-.6826h1.17a1.98,1.98,0,0,1-.8706,1.4238A3.2184,3.2184,0,0,1,57.915,237.1029Zm-1.664-4.3154h3.3281v-.3643a1.8293,1.8293,0,0,0-.4355-1.3066,1.8645,1.8645,0,0,0-2.4571,0,1.8293,1.8293,0,0,0-.4355,1.3066Z"/><path class="cls-1" d="M65.5977,236.973v-7.15h1.0141v.9492h.0259a1.2693,1.2693,0,0,1,.3838-.78,1.1387,1.1387,0,0,1,.8125-.2989,1.1891,1.1891,0,0,1,.793.2735,1.5164,1.5164,0,0,1,.4677.7412h.0132a1.2513,1.2513,0,0,1,.41-.7412,1.2,1.2,0,0,1,.8125-.2735,1.3338,1.3338,0,0,1,1.0981.5137,2.0729,2.0729,0,0,1,.41,1.333v5.4336H70.7461v-5.4473a1.0462,1.0462,0,0,0-.208-.6826.7009.7009,0,0,0-.5723-.2529.6924.6924,0,0,0-.5591.2471,1.015,1.015,0,0,0-.208.6757v5.46h-.9619v-5.4473a1.0434,1.0434,0,0,0-.208-.6826.6852.6852,0,0,0-.5591-.2529.7063.7063,0,0,0-.5718.2471,1.015,1.015,0,0,0-.208.6757v5.46Z"/><path class="cls-1" d="M79.521,237.1029a2.7717,2.7717,0,0,1-2.0342-.7608,2.8071,2.8071,0,0,1-.7739-2.1v-1.6894a2.8086,2.8086,0,0,1,.7739-2.1,2.7758,2.7758,0,0,1,2.0342-.7608,3.086,3.086,0,0,1,1.4756.3379,2.4369,2.4369,0,0,1,.9814.9492,2.85,2.85,0,0,1,.3511,1.4434v1.2734H77.8569v.6768a1.7086,1.7086,0,0,0,.4551,1.2539,1.6221,1.6221,0,0,0,1.209.4619,2.0582,2.0582,0,0,0,1.0728-.2539,1.03,1.03,0,0,0,.5131-.6826h1.17a1.98,1.98,0,0,1-.8707,1.4238A3.2181,3.2181,0,0,1,79.521,237.1029Zm-1.6641-4.3154h3.3282v-.3643a1.8293,1.8293,0,0,0-.4356-1.3066,1.8643,1.8643,0,0,0-2.457,0,1.8293,1.8293,0,0,0-.4356,1.3066Z"/><path class="cls-1" d="M87.62,236.973v-7.15h1.17v1.3652h.0127a1.5983,1.5983,0,0,1,.585-1.1044,2.0555,2.0555,0,0,1,1.313-.3907,2.2719,2.2719,0,0,1,1.7163.6631,2.5027,2.5027,0,0,1,.6367,1.8076v4.81h-1.17v-4.6016a1.76,1.76,0,0,0-.41-1.2548,1.4522,1.4522,0,0,0-1.1113-.4356,1.4913,1.4913,0,0,0-1.15.4551,1.8217,1.8217,0,0,0-.4224,1.2871v4.55Z"/><path class="cls-1" d="M101.8423,236.973a1.9529,1.9529,0,0,1-1.417-.5137,1.8151,1.8151,0,0,1-.5332-1.3711V230.889H97.8379v-1.0664h2.0542V227.808h1.17v2.0146h2.9248v1.0664H101.062v4.1992a.8277.8277,0,0,0,.2144.5909.7391.7391,0,0,0,.5659.2275h2.08v1.0664Z"/><path class="cls-1" d="M122.3169,237.1029a2.1886,2.1886,0,0,1-1.71-.7149,2.7891,2.7891,0,0,1-.6435-1.9375v-2.0927a2.8274,2.8274,0,0,1,.6372-1.95,2.1826,2.1826,0,0,1,1.7158-.7149,2.1293,2.1293,0,0,1,1.3325.4034,1.6252,1.6252,0,0,1,.63,1.0917h.0132l-.0259-1.625v-2.08h1.17v9.49h-1.17v-1.3652h-.0132a1.5748,1.5748,0,0,1-.6108,1.0986A2.1229,2.1229,0,0,1,122.3169,237.1029Zm.39-1.0137a1.4716,1.4716,0,0,0,1.1441-.4551,1.8,1.8,0,0,0,.416-1.2607v-1.95a1.798,1.798,0,0,0-.416-1.2607,1.4713,1.4713,0,0,0-1.1441-.4551,1.4177,1.4177,0,0,0-1.5732,1.65v2.08a1.66,1.66,0,0,0,.416,1.2608A1.6229,1.6229,0,0,0,122.707,236.0892Z"/><path class="cls-1" d="M133.5356,237.1029a2.7713,2.7713,0,0,1-2.0341-.7608,2.8071,2.8071,0,0,1-.774-2.1v-1.6894a2.8087,2.8087,0,0,1,.774-2.1,2.7754,2.7754,0,0,1,2.0341-.7608,3.086,3.086,0,0,1,1.4756.3379,2.4327,2.4327,0,0,1,.981.9492,2.8452,2.8452,0,0,1,.3516,1.4434v1.2734h-4.4722v.6768a1.7081,1.7081,0,0,0,.4551,1.2539,1.6219,1.6219,0,0,0,1.2089.4619,2.0579,2.0579,0,0,0,1.0728-.2539,1.03,1.03,0,0,0,.5132-.6826h1.1694a1.979,1.979,0,0,1-.87,1.4238A3.2182,3.2182,0,0,1,133.5356,237.1029Zm-1.664-4.3154h3.3276v-.3643a1.8291,1.8291,0,0,0-.435-1.3066,1.8645,1.8645,0,0,0-2.4571,0,1.8293,1.8293,0,0,0-.4355,1.3066Z"/><path class="cls-1" d="M144.0527,237.0765a2.8438,2.8438,0,0,1-1.8525-.539,1.866,1.866,0,0,1-.6563-1.5274h1.17a.936.936,0,0,0,.3506.7735,1.55,1.55,0,0,0,.9882.2792h.5723a1.57,1.57,0,0,0,1.0068-.2861.9724.9724,0,0,0,.3575-.8056.9161.9161,0,0,0-.8448-1.04l-1.9756-.2861a1.6939,1.6939,0,0,1-1.1308-.6045,2.0343,2.0343,0,0,1-.4033-1.3193,1.8048,1.8048,0,0,1,.6435-1.4688,2.7,2.7,0,0,1,1.7744-.5332h.5723a2.6692,2.6692,0,0,1,1.6963.5137,1.7755,1.7755,0,0,1,.708,1.3457h-1.1826a.8247.8247,0,0,0-.3574-.6241,1.4066,1.4066,0,0,0-.8643-.247h-.5723a1.4505,1.4505,0,0,0-.9355.2724.9028.9028,0,0,0-.3389.7413.7588.7588,0,0,0,.69.8583l1.8457.26a2.1614,2.1614,0,0,1,1.164,3.6856,2.8,2.8,0,0,1-1.8525.5517Z"/><path class="cls-1" d="M165.9443,237.1029a2.7721,2.7721,0,0,1-2.0341-.7608,2.8084,2.8084,0,0,1-.7735-2.1v-1.6894a2.81,2.81,0,0,1,.7735-2.1,2.7761,2.7761,0,0,1,2.0341-.7608,3.0846,3.0846,0,0,1,1.4756.3379,2.4309,2.4309,0,0,1,.9815.9492,2.8461,2.8461,0,0,1,.3515,1.4434v1.2734H164.28v.6768a1.71,1.71,0,0,0,.4551,1.2539,1.6235,1.6235,0,0,0,1.2089.4619,2.0611,2.0611,0,0,0,1.0733-.2539,1.03,1.03,0,0,0,.5127-.6826h1.17a1.98,1.98,0,0,1-.87,1.4238A3.22,3.22,0,0,1,165.9443,237.1029Zm-1.664-4.3154h3.3281v-.3643a1.8271,1.8271,0,0,0-.4355-1.3066,1.8645,1.8645,0,0,0-2.4571,0,1.8315,1.8315,0,0,0-.4355,1.3066Zm.91-4.1993,1.378-1.82H167.83l-1.4434,1.82Z"/><path class="cls-1" d="M178.2812,239.3128v-2.08l.0264-1.625h-.039a1.5853,1.5853,0,0,1-.6114,1.0918,2.0953,2.0953,0,0,1-1.3261.4033,2.1841,2.1841,0,0,1-1.7159-.7149,2.8255,2.8255,0,0,1-.6367-1.95v-2.0927a2.7849,2.7849,0,0,1,.6436-1.9434,2.1965,2.1965,0,0,1,1.709-.709,2.128,2.128,0,0,1,1.3261.3965,1.5757,1.5757,0,0,1,.6114,1.0986h.0126v-1.3652h1.17v9.49Zm-1.56-3.2236a1.47,1.47,0,0,0,1.1435-.4551,1.7992,1.7992,0,0,0,.416-1.2607v-1.95a1.7975,1.7975,0,0,0-.416-1.2607,1.47,1.47,0,0,0-1.1435-.4551,1.658,1.658,0,0,0-1.1572.3769,1.5583,1.5583,0,0,0-.4161,1.209v2.21a1.56,1.56,0,0,0,.4161,1.209A1.6628,1.6628,0,0,0,176.7217,236.0892Z"/><path class="cls-1" d="M187.5381,237.1029a2.5427,2.5427,0,0,1-2.7178-2.73v-4.5508h1.17v4.5508a1.7848,1.7848,0,0,0,.416,1.2412,1.4468,1.4468,0,0,0,1.1319.4609,1.4844,1.4844,0,0,0,1.15-.4609,1.7693,1.7693,0,0,0,.4219-1.2412v-4.5508h1.17v4.5508a2.6545,2.6545,0,0,1-.7539,1.9951A2.7293,2.7293,0,0,1,187.5381,237.1029Z"/><path class="cls-1" d="M195.5586,236.973v-1.0664h2.5352V230.889h-2.2754v-1.0664h3.4453v6.084h2.4043v1.0664Zm2.99-8.4365a.9789.9789,0,0,1-.6767-.2217.7642.7642,0,0,1-.2471-.5977.7993.7993,0,0,1,.2471-.6171,1.1184,1.1184,0,0,1,1.3525,0,.7993.7993,0,0,1,.2471.6171.7642.7642,0,0,1-.2471.5977A.9781.9781,0,0,1,198.5488,228.5365Z"/><path class="cls-1" d="M206.4521,239.3128v-9.49h1.1709v1.3652h.0127a1.5721,1.5721,0,0,1,.6114-1.0986,2.1251,2.1251,0,0,1,1.3252-.3965,2.1937,2.1937,0,0,1,1.7168.709,2.8055,2.8055,0,0,1,.6367,1.9434v2.0927a2.83,2.83,0,0,1-.6367,1.95,2.1847,2.1847,0,0,1-1.7168.7149,2.0925,2.0925,0,0,1-1.3252-.4033,1.5816,1.5816,0,0,1-.6114-1.0918h-.039l.0263,1.625v2.08Zm2.7305-3.2236a1.6228,1.6228,0,0,0,1.1572-.3906,1.66,1.66,0,0,0,.4161-1.2608v-2.08a1.4178,1.4178,0,0,0-1.5733-1.65,1.4758,1.4758,0,0,0-1.1377.4551,1.7823,1.7823,0,0,0-.4219,1.2607v1.95a1.7839,1.7839,0,0,0,.4219,1.2607A1.4761,1.4761,0,0,0,209.1826,236.0892Z"/><path class="cls-1" d="M219.959,237.1029a2.7724,2.7724,0,0,1-2.0342-.7608,2.8087,2.8087,0,0,1-.7734-2.1v-1.6894a2.81,2.81,0,0,1,.7734-2.1,2.7764,2.7764,0,0,1,2.0342-.7608,3.0849,3.0849,0,0,1,1.4756.3379,2.4306,2.4306,0,0,1,.9814.9492,2.8452,2.8452,0,0,1,.3516,1.4434v1.2734h-4.4727v.6768a1.7106,1.7106,0,0,0,.4551,1.2539,1.6235,1.6235,0,0,0,1.209.4619,2.0607,2.0607,0,0,0,1.0732-.2539,1.0291,1.0291,0,0,0,.5127-.6826h1.17a1.979,1.979,0,0,1-.87,1.4238A3.22,3.22,0,0,1,219.959,237.1029Zm-1.6641-4.3154h3.3281v-.3643a1.8271,1.8271,0,0,0-.4355-1.3066,1.8643,1.8643,0,0,0-2.457,0,1.8311,1.8311,0,0,0-.4356,1.3066Z"/><path class="cls-1" d="M227.6426,236.973v-7.15h1.0136v.9492h.0264a1.2641,1.2641,0,0,1,.3838-.78,1.1378,1.1378,0,0,1,.8125-.2989,1.19,1.19,0,0,1,.793.2735,1.5235,1.5235,0,0,1,.4677.7412h.0127a1.2519,1.2519,0,0,1,.41-.7412,1.2,1.2,0,0,1,.8125-.2735,1.3325,1.3325,0,0,1,1.0977.5137,2.0708,2.0708,0,0,1,.41,1.333v5.4336H232.791v-5.4473a1.049,1.049,0,0,0-.208-.6826.7021.7021,0,0,0-.5723-.2529.6926.6926,0,0,0-.56.2471,1.0145,1.0145,0,0,0-.208.6757v5.46h-.962v-5.4473a1.0434,1.0434,0,0,0-.208-.6826.6841.6841,0,0,0-.5586-.2529.7064.7064,0,0,0-.5722.2471,1.0145,1.0145,0,0,0-.208.6757v5.46Z"/><path class="cls-1" d="M241.5654,237.1029a2.7709,2.7709,0,0,1-2.0342-.7608,2.8054,2.8054,0,0,1-.7744-2.1v-1.6894a2.8069,2.8069,0,0,1,.7744-2.1,2.775,2.775,0,0,1,2.0342-.7608,3.0874,3.0874,0,0,1,1.4756.3379,2.4434,2.4434,0,0,1,.9815.9492,2.855,2.855,0,0,1,.35,1.4434v1.2734h-4.4716v.6768a1.7065,1.7065,0,0,0,.455,1.2539,1.6207,1.6207,0,0,0,1.209.4619,2.055,2.055,0,0,0,1.0723-.2539,1.0312,1.0312,0,0,0,.5137-.6826h1.17a1.9805,1.9805,0,0,1-.8711,1.4238A3.2168,3.2168,0,0,1,241.5654,237.1029Zm-1.664-4.3154H243.23v-.3643a1.8311,1.8311,0,0,0-.4356-1.3066,1.8643,1.8643,0,0,0-2.457,0,1.8271,1.8271,0,0,0-.4355,1.3066Z"/><path class="cls-1" d="M249.6641,236.973v-7.15h1.1709v1.3652h.0127a1.5978,1.5978,0,0,1,.5849-1.1044,2.0531,2.0531,0,0,1,1.3125-.3907,2.2722,2.2722,0,0,1,1.7168.6631,2.5048,2.5048,0,0,1,.6367,1.8076v4.81h-1.17v-4.6016a1.761,1.761,0,0,0-.41-1.2548,1.4511,1.4511,0,0,0-1.1114-.4356,1.4914,1.4914,0,0,0-1.15.4551,1.8238,1.8238,0,0,0-.4218,1.2871v4.55Z"/><path class="cls-1" d="M263.8867,236.973a1.9539,1.9539,0,0,1-1.417-.5137,1.8155,1.8155,0,0,1-.5332-1.3711V230.889h-2.0537v-1.0664h2.0537V227.808h1.17v2.0146h2.9248v1.0664h-2.9248v4.1992a.828.828,0,0,0,.2149.5909.7374.7374,0,0,0,.5654.2275h2.08v1.0664Z"/></svg>