<?xml version="1.0" encoding="utf-8"?>
<!-- Generator: Adobe Illustrator 26.1.0, SVG Export Plug-In . SVG Version: 6.00 Build 0)  -->
<svg version="1.1" id="Layer_1" xmlns="http://www.w3.org/2000/svg" xmlns:xlink="http://www.w3.org/1999/xlink" x="0px" y="0px"
	 viewBox="0 0 2000 520" style="enable-background:new 0 0 2000 520;" xml:space="preserve">
<style type="text/css">
	.st0{fill:#0AA5FF;}
</style>
<path class="st0" d="M96.8,307c1.3,16.4,8.9,31.8,21.1,42.8c0.7,0.7,1.5,1.3,2.3,1.8l52.4,34.8c6.5,4.3,14.9,4.3,21.4,0l123.6-82.2
	c5.4-3.6,8.6-9.6,8.6-16.1l0,0c0-10.7-8.7-19.4-19.4-19.4c-3.8,0-7.5,1.1-10.7,3.2l-101.7,67.4c-6.5,4.3-15,4.3-21.5-0.1l-21.9-14.7
	c-0.6-0.4-1.3-0.9-1.9-1.4c-8.6-7.4-14.2-17.7-15.8-29c-0.1-0.9-0.2-1.8-0.2-2.7l0.3-193.8c0-10.7-8.6-19.4-19.3-19.4
	c0,0-0.1,0-0.1,0l-17.4,0.1L96.8,307L96.8,307z"/>
<path class="st0" d="M251.3,241.5l96.7-66.9c8.3-5.7,19.6-3.6,25.3,4.6c2.1,3.1,3.2,6.7,3.2,10.4c-0.2,41.5-0.4,83-0.5,124.5
	c0,1-0.1,2-0.3,3c-0.3,1.6-0.7,3.2-1.3,4.7c-0.9,2.2-2,4.2-3.4,6.1c-0.9,1.2-1.9,2.4-3,3.5c-0.8,0.8-1.8,1.6-2.7,2.2
	c-17.7,11.6-35.5,23.2-53.5,34.9c-20.5,13.3-41,26.4-61.4,39.3c-8.5,5.4-11,16.6-5.6,25.1c1.3,2.1,3.1,3.9,5.1,5.3l0.7,0.5
	c6,4.1,13.8,4.2,19.9,0.4l116.5-73.4c1.2-0.8,2.3-1.6,3.3-2.6c11.7-11.6,19.6-26.4,22.8-42.5c0.8-4.2,1.1-8.5,1.1-12.8
	c0-63.2,0.1-126.5,0.1-189.8c0-10.1-8.1-18.2-18.2-18.2c-3.8,0-7.5,1.2-10.6,3.4L248,200.9c-8.2,5.8-19.6,3.9-25.4-4.3
	c-2.2-3.1-3.4-6.7-3.4-10.5l-0.1-51.7c0-10,8-18.1,18-18.2l52-0.6c3.8,0,7.5-1.3,10.6-3.6l0.5-0.4c8.1-6,9.8-17.4,3.8-25.5
	c-3.4-4.6-8.8-7.4-14.6-7.4l-105.6-0.5L183.6,206c0,23.8,19.2,43.2,43.1,43.2C235.5,249.2,244.1,246.5,251.3,241.5z"/>
<path class="st0" d="M691.3,121v3.2h-15.6v96.3h5.3c18.2,0,26.3-13.2,34.9-31.1h3.1l-2.8,34.4h-77.8v-3.2h8.7v-96.3h-8.7V121H691.3z
	"/>
<path class="st0" d="M754.9,153.9h42.6v2.6h-7.9l16,48.7l17-48.7h-9.8v-2.6h20.7v2.6h-7.3l-27.5,79.1c-6.6,18.9-14.2,24.8-25.8,24.8
	c-11,0-18.3-5.6-18.3-14.8c-0.5-6.1,4.1-11.4,10.2-11.9c0.5,0,1,0,1.6,0c7.5,0,12.2,3.2,12.2,10.1c0,1.8-0.3,3.6-0.9,5.3h-5.1
	c-1.5,4.4-0.6,7.8,3.7,7.8c8.2,0,14.1-8.2,19.7-24.1l3.2-9.1H786l-25.1-67.2h-6V153.9z"/>
<path class="st0" d="M897.7,185.4v7.6c0,18.8,3.4,27.2,14.8,27.2c13.4,0,19.1-11.3,20.7-19.2l2.6,0.3c-1.9,9.1-6.8,23.9-31.3,23.9
	c-22.6,0-35.2-12.6-35.2-35.5c0-24.7,15-37.3,39.2-37.3c17.9,0,26.9,7.6,26.9,18.6c0,9.1-4.8,13.8-12.2,13.8
	c-6.3,0.8-12.2-3.6-13-10c-0.1-0.7-0.1-1.5-0.1-2.2c0-1.8,0.2-3.6,0.7-5.3h4.8c0.6-1.7,1-3.5,1-5.3c0.4-3.5-2.1-6.6-5.5-7.1
	c-0.5-0.1-1-0.1-1.5,0C901.2,155.1,897.7,163.6,897.7,185.4z"/>
<path class="st0" d="M978.8,189c0-25.4,17.3-36.6,37.7-36.6c23,0,32.9,11.6,32,33.5h-41.4v5.7c0,17.3,3.1,29.1,17.3,29.1
	c10.9,0,18.2-6.9,21.4-18.2l2.6,0.4c-3.4,12.6-11,22.3-31.8,22.3C990.6,225.2,978.8,210.2,978.8,189z M1005.7,143.5l1.6,1l19.7-16.3
	c2.5-1.8,4.1-4.7,4.3-7.8c0-3.8-2.8-7.9-9.4-6.5l-6.9,1.5L1005.7,143.5z M1022.4,182.9v-7.2c0-15.4-1.2-20.6-7.2-20.6
	c-5.1,0-7.9,5-7.9,20.6v7.2H1022.4z"/>
<path class="st0" d="M1130.9,152.4c23,0,32.9,11.6,32,33.5h-41.4v5.7c0,17.3,3.1,29.1,17.3,29.1c10.9,0,18.2-6.9,21.4-18.2l2.6,0.4
	c-3.4,12.6-11,22.3-31.8,22.3c-26.1,0-37.9-15-37.9-36.3C1093.2,163.6,1110.5,152.4,1130.9,152.4z M1136.8,182.9v-7.2
	c0-15.4-1.2-20.6-7.2-20.6c-5.1,0-7.9,5-7.9,20.6v7.2H1136.8z"/>
<path class="st0" d="M1336.7,206.7c0-12.2-9.1-16.1-27.2-21.3c-17.8-5-31.3-12-31.3-34.2c0-16.4,12.2-31.9,34.8-31.9
	c13.5,0,21.1,4.6,26.1,4.6c2.5,0,3.2-1,4.3-2.9h1.6l1,29.6h-2.3c-7.5-13.5-17.5-28.2-32.6-28.2c-10.6,0-17.9,6.2-17.9,14.8
	c0,10.9,10,14.5,24.8,18.5c16.3,4.4,34.3,10,34.3,34.4c0,21.1-14.4,35.1-36,35.1c-14.2,0-26.6-4.4-30.7-4.4c-2.3,0-3.2,1.6-4.4,4.4
	h-2.1l-1.5-34.9h2.5c7.3,14.7,21.6,31.9,37.7,31.9C1326.8,222.1,1336.7,217.4,1336.7,206.7z"/>
<path class="st0" d="M1433.5,165.5c3.1-8.4,11.3-13.7,20.3-13.1c16.4,0,26.6,11.6,26.6,36.6c0,25.1-10.3,36.3-30.2,36.3
	c-10,0-13.7-2.6-16.3-7.2v38h18.9v2.6h-54.3V256h8.1v-99.5h-7.8v-2.6h34.8L1433.5,165.5L1433.5,165.5z M1433.8,179v26.9
	c0,7.9,3.1,15.1,9.5,15.1c7.2,0,8.7-8.7,8.7-29.1v-7.6c0-20.7-1.8-25.5-6.8-25.5C1439.2,158.7,1433.8,166.2,1433.8,179L1433.8,179z"
	/>
<path class="st0" d="M1562.5,152.4c24.7,0,36.4,11.6,36.4,35.4c0,24.1-11.2,37.4-37.3,37.4c-24.7,0-37.1-13.2-37.1-36.1
	C1524.5,165,1538.9,152.4,1562.5,152.4z M1570.7,182.4c0-15.9-0.4-27.3-8.7-27.3c-8.9,0-9.4,11.4-9.4,28v11.4c0,17,0.3,28,9.2,28
	c8.4,0,8.8-8.7,8.8-27.7L1570.7,182.4z"/>
<path class="st0" d="M1677,181.8v39.3h10.4v2.6h-45.8v-2.6h8.1v-64.6h-8.1v-2.6h35.4V168c2-9.2,10.2-15.8,19.7-15.6
	c7.8-0.8,14.8,4.9,15.6,12.8c0.1,1,0.1,2,0,3c0,8.4-4.4,13.9-12.3,13.9c-9.8,0-14.5-6.2-11.4-16.6h5.3c2.9-6,0-7.5-3.1-7.5
	C1683.6,158,1677,168.6,1677,181.8z"/>
<path class="st0" d="M1760.2,156.5h-8.1v-2.6h8.1V135l27.3-6.8v25.7h19.1v2.6h-19.1V206c0,8.7,1.3,13.4,6.5,13.4
	c7.1,0,11.4-6.5,12.8-16.4l2.5,0.3c-1.3,11.4-6.2,22-24.1,22c-14.5,0-25-4.3-25-22.5L1760.2,156.5L1760.2,156.5z"/>
<path class="st0" d="M547.2,395.1v-48h8.8l6.1,20.8l6.4-20.8h8.8v48h-5.7v-22.7c0-2.1,0-4.6,0.1-7.4c0.1-2.8,0.2-5.6,0.3-8.5
	c0.1-2.9,0.3-5.4,0.5-7.7l-7.8,24.8h-5.1l-7.4-24.2c0.4,3.2,0.6,6.8,0.7,10.7c0.1,3.9,0.2,8,0.2,12.3v22.7H547.2z"/>
<path class="st0" d="M613.7,395.8c-3.3,0.2-6.5-1-8.9-3.1c-2.2-2.1-3.4-5.1-3.3-8.2c0-2,0.5-4.1,1.5-5.9c1-1.7,2.5-3,4.2-3.9
	c1.9-1,4-1.5,6.2-1.4h11.2v-2.8c0-4.7-2.6-7-7.7-7c-1.9-0.1-3.8,0.4-5.5,1.2c-1.3,0.7-2.2,2-2.2,3.5h-5.9c0.2-2.8,1.7-5.4,4-7.1
	c2.8-2,6.2-3,9.7-2.8c3.6-0.2,7.2,0.9,10.1,3.2c2.4,2.3,3.7,5.5,3.5,8.8v24.9h-5.9v-6.6h-0.1c-0.3,2.2-1.5,4.1-3.4,5.3
	C618.9,395.2,616.3,395.9,613.7,395.8z M615.1,390.8c2.5,0.1,4.9-0.6,6.9-2.1c1.7-1.4,2.7-3.5,2.6-5.7v-5.1h-10.5
	c-1.7-0.1-3.4,0.6-4.7,1.7c-1.2,1.2-1.9,2.9-1.8,4.6c-0.1,1.8,0.7,3.6,2,4.8C611.1,390.3,613.1,390.9,615.1,390.8L615.1,390.8z"/>
<path class="st0" d="M657.1,395.1v-36.2h5.9v6.9h0.1c0.2-2.2,1.3-4.2,3-5.6c1.9-1.4,4.3-2.1,6.6-2c3.2-0.2,6.4,1.1,8.7,3.4
	c2.2,2.5,3.4,5.8,3.2,9.1v24.3h-5.9v-23.3c0.2-2.3-0.6-4.6-2.1-6.4c-1.5-1.5-3.5-2.3-5.6-2.2c-2.2-0.1-4.3,0.7-5.8,2.3
	c-1.5,1.8-2.3,4.1-2.1,6.5v23L657.1,395.1z"/>
<path class="st0" d="M722.3,395.8c-3.3,0.2-6.5-1-8.9-3.1c-2.2-2.1-3.4-5.1-3.3-8.2c0-2,0.5-4.1,1.5-5.9c1-1.7,2.5-3,4.2-3.9
	c1.9-1,4-1.5,6.2-1.4h11.2v-2.8c0-4.7-2.6-7-7.7-7c-1.9-0.1-3.8,0.4-5.5,1.2c-1.3,0.7-2.2,2-2.2,3.5h-5.9c0.2-2.8,1.7-5.4,4-7.1
	c2.8-2,6.2-3,9.7-2.8c3.6-0.2,7.2,0.9,10.1,3.2c2.4,2.3,3.7,5.5,3.5,8.8v24.9h-5.9v-6.6h-0.1c-0.3,2.2-1.5,4.1-3.4,5.3
	C727.5,395.2,724.9,395.9,722.3,395.8z M723.8,390.8c2.5,0.1,4.9-0.6,6.9-2.1c1.7-1.4,2.7-3.5,2.6-5.7v-5.1h-10.5
	c-1.7-0.1-3.4,0.6-4.7,1.7c-1.2,1.2-1.9,2.9-1.8,4.6c-0.1,1.8,0.7,3.6,2,4.8C719.8,390.3,721.7,390.9,723.8,390.8L723.8,390.8z"/>
<path class="st0" d="M771,407v-5.4h10.2c1.8,0.1,3.5-0.5,4.9-1.7c1.2-1.2,1.9-3,1.8-4.7v-3.3l0.1-5.9h-0.2c-0.3,2-1.4,3.8-3.1,5
	c-4.9,2.9-11.2,2.1-15.3-1.8c-2.3-2.7-3.4-6.2-3.2-9.7v-7.6c-0.2-3.6,1-7.1,3.2-9.8c2.2-2.5,5.5-3.8,8.8-3.6
	c2.3-0.1,4.5,0.6,6.5,1.8c1.7,1.2,2.8,3,3.1,5.1h0.1v-6.2h5.8v36.2c0.2,3.2-1.1,6.4-3.4,8.6c-2.5,2.2-5.9,3.4-9.2,3.2H771z
	 M780,387.7c2.2,0.1,4.3-0.7,5.8-2.3c1.5-1.8,2.2-4.1,2.1-6.4v-6.9c0.1-2.3-0.6-4.6-2.1-6.4c-1.5-1.6-3.6-2.4-5.8-2.3
	c-2.2-0.1-4.3,0.7-5.8,2.2c-1.4,1.6-2.2,3.7-2.1,5.9v8.2c-0.1,2.1,0.6,4.2,2.1,5.9C775.7,387,777.8,387.8,780,387.7z"/>
<path class="st0" d="M834.8,395.8c-3.8,0.2-7.5-1.2-10.3-3.9c-2.7-2.9-4.1-6.7-3.9-10.6v-8.5c-0.2-3.9,1.2-7.8,3.9-10.6
	c2.8-2.6,6.5-4,10.3-3.9c2.6-0.1,5.2,0.5,7.5,1.7c2.1,1.1,3.8,2.8,5,4.8c1.2,2.2,1.8,4.8,1.8,7.3v6.4h-22.6v3.4
	c-0.1,2.3,0.7,4.6,2.3,6.4c1.6,1.6,3.8,2.4,6.1,2.3c1.9,0.1,3.8-0.4,5.4-1.3c1.3-0.7,2.3-2,2.6-3.5h5.9c-0.3,2.9-2,5.6-4.4,7.2
	C841.5,395,838.2,395.9,834.8,395.8z M826.4,373.9h16.8v-1.8c0.2-2.4-0.6-4.8-2.2-6.6c-3.6-3.1-8.9-3.1-12.4,0
	c-1.6,1.8-2.4,4.2-2.2,6.6L826.4,373.9L826.4,373.9z"/>
<path class="st0" d="M873.7,395.1v-36.2h5.1v4.8h0.1c0.2-1.5,0.8-2.9,1.9-4c1.1-1,2.6-1.6,4.1-1.5c1.5,0,2.9,0.5,4,1.4
	c1.1,1,2,2.3,2.4,3.8h0.1c0.2-1.5,1-2.8,2.1-3.8c1.2-1,2.6-1.4,4.1-1.4c2.2-0.1,4.2,0.9,5.6,2.6c1.5,1.9,2.2,4.3,2.1,6.8v27.5h-5.5
	v-27.6c0.1-1.2-0.3-2.5-1-3.5c-0.7-0.9-1.8-1.3-2.9-1.3c-1.1,0-2.1,0.4-2.8,1.2c-0.8,1-1.1,2.2-1,3.4v27.6H887v-27.6
	c0.1-1.2-0.3-2.5-1-3.5c-0.7-0.9-1.7-1.3-2.8-1.3c-1.1,0-2.2,0.4-2.9,1.2c-0.8,1-1.1,2.2-1,3.4v27.6L873.7,395.1z"/>
<path class="st0" d="M944.1,395.8c-3.8,0.2-7.5-1.2-10.3-3.9c-2.7-2.9-4.1-6.7-3.9-10.6v-8.5c-0.2-3.9,1.2-7.8,3.9-10.6
	c2.8-2.6,6.5-4,10.3-3.9c2.6-0.1,5.2,0.5,7.5,1.7c2.1,1.1,3.8,2.8,5,4.8c1.2,2.2,1.8,4.8,1.8,7.3v6.4h-22.6v3.4
	c-0.1,2.3,0.7,4.6,2.3,6.4c1.6,1.6,3.8,2.4,6.1,2.3c1.9,0.1,3.8-0.4,5.4-1.3c1.3-0.7,2.3-2,2.6-3.5h5.9c-0.3,2.9-2,5.6-4.4,7.2
	C950.8,395,947.5,395.9,944.1,395.8z M935.7,373.9h16.8v-1.8c0.2-2.4-0.6-4.8-2.2-6.6c-3.6-3.1-8.9-3.1-12.4,0
	c-1.6,1.8-2.4,4.2-2.2,6.6L935.7,373.9L935.7,373.9z"/>
<path class="st0" d="M985.1,395.1v-36.2h5.9v6.9h0.1c0.2-2.2,1.3-4.2,3-5.6c1.9-1.4,4.3-2.1,6.6-2c3.2-0.2,6.4,1.1,8.7,3.4
	c2.2,2.5,3.4,5.8,3.2,9.1v24.3h-5.9v-23.3c0.2-2.3-0.6-4.6-2.1-6.4c-1.5-1.5-3.5-2.3-5.6-2.2c-2.2-0.1-4.3,0.7-5.8,2.3
	c-1.5,1.8-2.3,4.1-2.1,6.5v23L985.1,395.1z"/>
<path class="st0" d="M1057.1,395.1c-2.6,0.1-5.2-0.8-7.2-2.6c-1.8-1.8-2.8-4.4-2.7-6.9v-21.2h-10.4v-5.4h10.4v-10.2h5.9v10.2h14.8
	v5.4h-14.8v21.2c-0.1,1.1,0.3,2.2,1.1,3c0.7,0.8,1.8,1.2,2.9,1.1h10.5v5.4L1057.1,395.1L1057.1,395.1z"/>
<path class="st0" d="M1160.7,395.8c-3.3,0.1-6.4-1.2-8.7-3.6c-2.3-2.7-3.4-6.2-3.3-9.8v-10.6c-0.2-3.6,0.9-7.1,3.2-9.9
	c2.2-2.4,5.4-3.8,8.7-3.6c2.4-0.1,4.8,0.6,6.7,2c1.8,1.3,2.9,3.3,3.2,5.5h0.1l-0.1-8.2v-10.5h5.9v48h-5.9v-6.9h-0.1
	c-0.2,2.2-1.3,4.2-3.1,5.6C1165.5,395.2,1163.1,395.9,1160.7,395.8z M1162.7,390.6c2.2,0.1,4.3-0.7,5.8-2.3c1.5-1.8,2.2-4.1,2.1-6.4
	v-9.9c0.1-2.3-0.6-4.6-2.1-6.4c-1.5-1.6-3.6-2.4-5.8-2.3c-3.9-0.5-7.5,2.3-8,6.2c-0.1,0.7-0.1,1.4,0.1,2.1v10.5
	c-0.2,2.3,0.6,4.6,2.1,6.4C1158.4,390.1,1160.6,390.8,1162.7,390.6L1162.7,390.6z"/>
<path class="st0" d="M1217.5,395.8c-3.8,0.2-7.5-1.2-10.3-3.9c-2.7-2.9-4.1-6.7-3.9-10.6v-8.5c-0.2-3.9,1.2-7.8,3.9-10.6
	c2.8-2.6,6.5-4,10.3-3.9c2.6-0.1,5.2,0.5,7.5,1.7c2.1,1.1,3.8,2.8,5,4.8c1.2,2.2,1.8,4.8,1.8,7.3v6.4h-22.6v3.4
	c-0.1,2.3,0.7,4.6,2.3,6.4c1.6,1.6,3.8,2.4,6.1,2.3c1.9,0.1,3.8-0.4,5.4-1.3c1.3-0.7,2.3-2,2.6-3.5h5.9c-0.3,2.9-1.9,5.6-4.4,7.2
	C1224.2,395,1220.9,395.9,1217.5,395.8z M1209.1,373.9h16.8v-1.8c0.2-2.4-0.6-4.8-2.2-6.6c-3.6-3.1-8.9-3.1-12.4,0
	c-1.6,1.8-2.4,4.2-2.2,6.6L1209.1,373.9L1209.1,373.9z"/>
<path class="st0" d="M1270.7,395.6c-3.3,0.2-6.7-0.8-9.4-2.7c-2.3-1.9-3.5-4.8-3.3-7.7h5.9c-0.1,1.5,0.6,3,1.8,3.9
	c1.5,1,3.2,1.5,5,1.4h2.9c1.8,0.1,3.6-0.4,5.1-1.5c1.2-1,1.9-2.5,1.8-4.1c0.3-2.5-1.4-4.9-3.9-5.2c-0.1,0-0.2,0-0.3,0l-10-1.5
	c-2.2-0.2-4.3-1.3-5.7-3.1c-1.4-1.9-2.2-4.3-2-6.7c-0.1-2.9,1.1-5.6,3.3-7.4c2.6-1.9,5.8-2.9,9-2.7h2.9c3.1-0.1,6.1,0.8,8.6,2.6
	c2.2,1.6,3.5,4.1,3.6,6.8h-6c-0.1-1.3-0.8-2.4-1.8-3.2c-1.3-0.9-2.8-1.3-4.4-1.2h-2.9c-1.7-0.1-3.4,0.4-4.7,1.4
	c-1.1,0.9-1.8,2.3-1.7,3.8c-0.3,2.1,1.2,4,3.3,4.3c0.1,0,0.1,0,0.2,0l9.3,1.3c6,1,10,6.6,9.1,12.5c-0.4,2.3-1.5,4.5-3.2,6.1
	c-2.7,2-6,3-9.4,2.8L1270.7,395.6z"/>
<path class="st0" d="M1381.5,395.8c-3.8,0.2-7.5-1.2-10.3-3.9c-2.7-2.9-4.1-6.7-3.9-10.6v-8.5c-0.2-3.9,1.2-7.8,3.9-10.6
	c2.8-2.6,6.5-4,10.3-3.9c2.6-0.1,5.2,0.5,7.5,1.7c2.1,1.1,3.8,2.8,5,4.8c1.2,2.2,1.8,4.8,1.8,7.3v6.4h-22.6v3.4
	c-0.1,2.3,0.7,4.6,2.3,6.4c1.6,1.6,3.8,2.4,6.1,2.3c1.9,0.1,3.8-0.4,5.4-1.3c1.3-0.7,2.3-2,2.6-3.5h5.9c-0.3,2.9-1.9,5.6-4.4,7.2
	C1388.2,395,1384.9,395.9,1381.5,395.8z M1373.1,373.9h16.8v-1.8c0.2-2.4-0.6-4.8-2.2-6.6c-3.6-3.1-8.9-3.1-12.4,0
	c-1.6,1.8-2.4,4.2-2.2,6.6L1373.1,373.9z M1377.7,352.7l7-9.2h6.4l-7.3,9.2H1377.7z"/>
<path class="st0" d="M1443.9,407v-10.5l0.1-8.2h-0.2c-0.2,2.2-1.3,4.2-3.1,5.5c-1.9,1.4-4.3,2.1-6.7,2c-3.3,0.1-6.5-1.2-8.7-3.6
	c-2.3-2.8-3.4-6.3-3.2-9.9v-10.6c-0.2-3.6,1-7.1,3.3-9.8c2.2-2.4,5.4-3.7,8.7-3.6c2.4-0.1,4.8,0.6,6.7,2c1.8,1.3,2.9,3.4,3.1,5.6
	h0.1v-6.9h5.9v48L1443.9,407L1443.9,407z M1436,390.6c2.2,0.1,4.3-0.7,5.8-2.3c1.5-1.8,2.2-4.1,2.1-6.4v-9.9
	c0.1-2.3-0.6-4.6-2.1-6.4c-1.5-1.6-3.6-2.4-5.8-2.3c-2.1-0.1-4.2,0.5-5.9,1.9c-1.5,1.6-2.3,3.9-2.1,6.1v11.2
	c-0.2,2.2,0.6,4.5,2.1,6.1C1431.8,390.1,1433.9,390.8,1436,390.6L1436,390.6z"/>
<path class="st0" d="M1490.8,395.8c-7.1,0.5-13.2-4.8-13.8-11.9c-0.1-0.6,0-1.3,0-1.9v-23h5.9v23c-0.1,2.3,0.6,4.5,2.1,6.3
	c1.5,1.6,3.6,2.4,5.7,2.3c2.2,0.1,4.3-0.7,5.8-2.3c1.5-1.7,2.2-4,2.1-6.3v-23h5.9v23c0.2,3.8-1.2,7.4-3.8,10.1
	C1498.1,394.6,1494.5,396,1490.8,395.8z"/>
<path class="st0" d="M1531.4,395.1v-5.4h12.8v-25.4h-11.5v-5.4h17.4v30.8h12.2v5.4L1531.4,395.1L1531.4,395.1z M1546.5,352.4
	c-1.2,0.1-2.5-0.3-3.4-1.1c-0.8-0.8-1.3-1.9-1.2-3c-0.1-1.2,0.4-2.3,1.2-3.1c2-1.5,4.8-1.5,6.8,0c0.8,0.8,1.3,2,1.2,3.1
	c0.1,1.1-0.4,2.2-1.2,3C1548.9,352.1,1547.7,352.5,1546.5,352.4L1546.5,352.4z"/>
<path class="st0" d="M1586.5,407v-48h5.9v6.9h0.1c0.2-2.2,1.3-4.2,3.1-5.6c1.9-1.4,4.3-2.1,6.7-2c3.3-0.1,6.5,1.2,8.7,3.6
	c2.3,2.8,3.4,6.3,3.2,9.8v10.6c0.2,3.6-0.9,7.1-3.2,9.9c-2.2,2.4-5.4,3.8-8.7,3.6c-2.4,0.1-4.8-0.6-6.7-2c-1.8-1.3-2.9-3.3-3.1-5.5
	h-0.2l0.1,8.2v10.5L1586.5,407L1586.5,407z M1600.3,390.6c2.1,0.1,4.2-0.6,5.9-2c1.6-1.7,2.3-4,2.1-6.4v-10.5
	c0.7-3.9-1.9-7.6-5.8-8.3c-0.7-0.1-1.4-0.1-2.1,0c-2.2-0.1-4.3,0.7-5.8,2.3c-1.5,1.8-2.3,4.1-2.1,6.4v9.9c-0.1,2.3,0.6,4.6,2.1,6.4
	C1596.1,389.9,1598.2,390.8,1600.3,390.6z"/>
<path class="st0" d="M1654.8,395.8c-3.8,0.2-7.5-1.2-10.3-3.9c-2.7-2.9-4.1-6.7-3.9-10.6v-8.5c-0.2-3.9,1.2-7.8,3.9-10.6
	c2.8-2.6,6.5-4,10.3-3.9c2.6-0.1,5.2,0.5,7.5,1.7c2.1,1.1,3.8,2.8,5,4.8c1.2,2.2,1.8,4.8,1.8,7.3v6.4h-22.6v3.4
	c-0.1,2.3,0.7,4.6,2.3,6.4c1.6,1.6,3.8,2.4,6.1,2.3c1.9,0.1,3.8-0.4,5.4-1.3c1.3-0.7,2.3-2,2.6-3.5h5.9c-0.3,2.9-1.9,5.6-4.4,7.2
	C1661.6,395,1658.2,395.9,1654.8,395.8z M1646.4,373.9h16.8v-1.8c0.2-2.4-0.6-4.8-2.2-6.6c-3.6-3.1-8.9-3.1-12.4,0
	c-1.6,1.8-2.4,4.2-2.2,6.6L1646.4,373.9L1646.4,373.9z"/>
<path class="st0" d="M1693.7,395.1v-36.2h5.1v4.8h0.1c0.2-1.5,0.8-2.9,1.9-4c1.1-1,2.6-1.6,4.1-1.5c1.5,0,2.9,0.5,4,1.4
	c1.1,1,2,2.3,2.4,3.8h0.1c0.2-1.5,1-2.8,2.1-3.8c1.2-1,2.6-1.4,4.1-1.4c2.2-0.1,4.2,0.9,5.6,2.6c1.4,1.9,2.2,4.3,2.1,6.8v27.5h-5.5
	v-27.6c0.1-1.2-0.3-2.5-1.1-3.5c-0.7-0.9-1.8-1.3-2.9-1.3c-1.1,0-2.1,0.4-2.8,1.2c-0.8,1-1.1,2.2-1.1,3.4v27.6h-4.9v-27.6
	c0.1-1.2-0.3-2.5-1.1-3.5c-0.7-0.9-1.7-1.3-2.8-1.3c-1.1,0-2.2,0.4-2.9,1.2c-0.8,1-1.1,2.2-1.1,3.4v27.6L1693.7,395.1z"/>
<path class="st0" d="M1764.2,395.8c-3.8,0.2-7.5-1.2-10.3-3.9c-2.7-2.9-4.1-6.7-3.9-10.6v-8.5c-0.2-3.9,1.2-7.8,3.9-10.6
	c2.8-2.6,6.5-4,10.3-3.9c2.6-0.1,5.2,0.5,7.5,1.7c2.1,1.1,3.8,2.8,5,4.8c1.2,2.2,1.8,4.8,1.8,7.3v6.4h-22.6v3.4
	c-0.1,2.3,0.7,4.6,2.3,6.4c1.6,1.6,3.8,2.4,6.1,2.3c1.9,0.1,3.8-0.4,5.4-1.3c1.3-0.7,2.3-2,2.6-3.5h5.9c-0.3,2.9-1.9,5.6-4.4,7.2
	C1770.9,395,1767.6,395.9,1764.2,395.8z M1755.8,373.9h16.8v-1.8c0.2-2.4-0.6-4.8-2.2-6.6c-3.6-3.1-8.9-3.1-12.4,0
	c-1.6,1.8-2.4,4.2-2.2,6.6L1755.8,373.9z"/>
<path class="st0" d="M1805.2,395.1v-36.2h5.9v6.9h0.1c0.2-2.2,1.3-4.2,3-5.6c1.9-1.4,4.3-2.1,6.6-2c3.2-0.2,6.4,1.1,8.7,3.4
	c2.2,2.5,3.4,5.8,3.2,9.1v24.3h-5.9v-23.3c0.2-2.3-0.6-4.6-2.1-6.4c-1.5-1.5-3.5-2.3-5.6-2.2c-2.2-0.1-4.3,0.7-5.8,2.3
	c-1.5,1.8-2.3,4.1-2.1,6.5v23L1805.2,395.1z"/>
<path class="st0" d="M1877.2,395.1c-2.6,0.1-5.2-0.8-7.2-2.6c-1.8-1.8-2.8-4.4-2.7-6.9v-21.2h-10.4v-5.4h10.4v-10.2h5.9v10.2h14.8
	v5.4h-14.8v21.2c0,1.1,0.3,2.2,1.1,3c0.7,0.8,1.8,1.2,2.9,1.1h10.5v5.4L1877.2,395.1L1877.2,395.1z"/>
</svg>
